<?xml version="1.0" standalone="no"?>
<!DOCTYPE svg PUBLIC "-//W3C//DTD SVG 20010904//EN"
 "http://www.w3.org/TR/2001/REC-SVG-20010904/DTD/svg10.dtd">
<svg version="1.0" xmlns="http://www.w3.org/2000/svg"
 width="227.000000pt" height="222.000000pt" viewBox="0 0 227.000000 222.000000"
 preserveAspectRatio="xMidYMid meet">

<g transform="translate(0.000000,222.000000) scale(0.100000,-0.100000)"
fill="#000000" stroke="none">
<path d="M1021 2210 c-344 -48 -620 -294 -712 -635 -32 -116 -32 -307 0 -425
69 -260 259 -479 499 -576 99 -40 172 -55 287 -61 258 -13 480 78 664 273 64
68 91 106 131 187 72 147 93 232 93 392 0 155 -20 243 -87 380 -134 273 -408
452 -717 469 -52 2 -123 1 -158 -4z m279 -266 c228 -67 391 -255 434 -501 l6
-33 -155 0 -155 0 -6 28 c-41 167 -231 264 -398 202 -110 -42 -176 -136 -184
-261 -4 -67 -1 -83 23 -138 51 -112 147 -174 270 -174 128 0 219 62 277 190
l28 63 145 0 c79 0 146 -4 149 -8 3 -5 -1 -39 -9 -76 -46 -219 -227 -404 -450
-461 -69 -18 -192 -20 -267 -4 -29 6 -91 29 -138 51 -164 79 -288 237 -326
418 -44 207 32 437 190 576 63 56 190 120 276 139 78 18 210 13 290 -11z"/>
<path d="M672 388 c-28 -28 -1 -75 37 -63 11 3 23 15 26 26 12 38 -35 65 -63
37z"/>
<path d="M1100 205 l0 -195 25 0 c16 0 25 6 25 15 0 19 -2 19 45 -5 49 -25 59
-25 111 0 50 25 74 68 74 132 0 103 -102 168 -190 123 l-30 -16 0 71 0 70 -30
0 -30 0 0 -195z m199 -1 c29 -37 27 -89 -4 -119 -63 -64 -166 6 -135 91 15 39
37 54 81 54 29 0 42 -6 58 -26z"/>
<path d="M75 271 c-67 -40 -89 -127 -51 -199 24 -46 92 -76 149 -67 44 8 107
60 107 89 0 26 -51 20 -79 -9 -62 -66 -160 7 -129 96 19 55 92 68 132 24 25
-27 76 -35 76 -11 0 20 -38 65 -70 81 -39 20 -99 19 -135 -4z"/>
<path d="M390 272 c-45 -22 -73 -72 -72 -128 2 -133 163 -189 251 -89 58 67
36 181 -42 218 -45 22 -93 21 -137 -1z m127 -64 c53 -49 14 -148 -58 -148 -72
0 -108 93 -57 147 28 30 83 31 115 1z"/>
<path d="M790 150 l0 -140 30 0 30 0 0 93 c0 104 13 130 65 130 52 0 65 -26
65 -130 l0 -93 30 0 30 0 0 100 c0 68 -5 110 -14 129 -16 30 -53 51 -91 51
-31 0 -75 -20 -76 -34 0 -6 -4 -1 -9 12 -6 15 -18 22 -35 22 l-25 0 0 -140z"/>
<path d="M1485 281 c-23 -10 -49 -38 -58 -63 -9 -26 44 -24 68 2 22 24 68 26
90 3 16 -16 16 -18 -3 -34 -12 -9 -43 -19 -70 -23 -59 -8 -92 -35 -92 -77 0
-45 16 -67 55 -78 40 -11 88 -1 116 25 17 15 19 15 19 2 0 -18 20 -28 56 -28
19 0 24 5 24 25 0 16 -6 25 -15 25 -12 0 -15 14 -15 69 0 86 -14 128 -51 146
-30 16 -92 19 -124 6z m110 -170 c-12 -55 -102 -80 -120 -34 -8 23 28 53 64
53 14 0 33 4 41 10 20 12 23 7 15 -29z"/>
<path d="M1774 280 c-12 -5 -29 -19 -38 -32 -39 -56 -1 -113 84 -124 55 -7 83
-26 74 -49 -12 -31 -114 -26 -114 5 0 6 -13 10 -30 10 -58 0 -22 -65 45 -80
84 -19 159 20 157 81 -1 46 -29 68 -101 81 -35 7 -65 18 -68 25 -15 38 61 59
95 26 10 -10 30 -18 45 -18 32 -1 31 -2 12 34 -22 44 -104 64 -161 41z"/>
<path d="M2061 272 c-50 -27 -73 -75 -68 -140 3 -41 10 -59 32 -82 37 -39 92
-54 144 -40 40 11 91 53 91 76 0 22 -53 17 -73 -6 -26 -31 -90 -27 -116 6 -12
15 -21 31 -21 35 0 5 50 9 111 9 l111 0 -7 37 c-10 57 -31 89 -69 107 -45 21
-93 20 -135 -2z m102 -43 c25 -14 37 -28 37 -46 0 -9 -21 -13 -70 -13 -49 0
-70 4 -70 13 0 17 12 32 35 45 26 15 41 15 68 1z"/>
<path d="M630 255 c0 -18 5 -25 20 -25 19 0 20 -7 20 -110 l0 -110 30 0 30 0
0 135 0 135 -50 0 c-47 0 -50 -2 -50 -25z"/>
</g>
</svg>
